<svg width="50" height="50" viewBox="0 0 50 50" fill="none" xmlns="http://www.w3.org/2000/svg">
<g clip-path="url(#clip0_130_69)">
<mask id="mask0_130_69" style="mask-type:luminance" maskUnits="userSpaceOnUse" x="0" y="0" width="50" height="50">
<path d="M50 0H0V50H50V0Z" fill="white"/>
</mask>
<g mask="url(#mask0_130_69)">
<path fill-rule="evenodd" clip-rule="evenodd" d="M12.5 0H0V25H12.5C5.59645 25 0 30.5965 0 37.5V50H25V37.5C25 44.4035 30.5965 50 37.5 50H50V25H37.5C44.4035 25 50 19.4035 50 12.5V0H25V12.5C25 5.59645 19.4035 0 12.5 0ZM25 25H12.5C19.4035 25 25 30.5965 25 37.5V25ZM25 25V12.5C25 19.4035 30.5965 25 37.5 25H25Z" fill="url(#paint0_linear_130_69)"/>
</g>
</g>
<defs>
<linearGradient id="paint0_linear_130_69" x1="25" y1="0" x2="25" y2="50" gradientUnits="userSpaceOnUse">
<stop stop-color="#19231B"/>
<stop offset="1" stop-color="#E6FDC7"/>
</linearGradient>
<clipPath id="clip0_130_69">
<rect width="50" height="50" fill="white"/>
</clipPath>
</defs>
</svg>
